Input #0, mov,mp4,m4a,3gp,3g2,mj2, from '/home/hbattu/projects/huberman-gpt/huberman-audio/mp3/tmpgekvxnol.mp4':
  Metadata:
    major_brand     : dash
    minor_version   : 0
    compatible_brands: iso6mp41
    creation_time   : 2022-11-26T22:09:25.000000Z
  Duration: 02:47:37.61, start: 0.000000, bitrate: 129 kb/s
    Stream #0:0(eng): Audio: aac (LC) (mp4a / 0x6134706D), 44100 Hz, stereo, fltp, 0 kb/s (default)
    Metadata:
      creation_time   : 2022-11-26T22:09:25.000000Z
      handler_name    : ISO Media file produced by Google Inc.
Stream mapping:
  Stream #0:0 -> #0:0 (aac (native) -> mp3 (libmp3lame))
Press [q] to stop, [?] for help
[graph_0_in_0_0 @ 0x56033b76ad00] tb:1/44100 samplefmt:fltp samplerate:44100 chlayout:0x3
Output #0, mp3, to '../huberman-audio/mp3/gXvuJu1kt48.mp3':
  Metadata:
    major_brand     : dash
    minor_version   : 0
    compatible_brands: iso6mp41
    TSSE            : Lavf58.29.100
    Stream #0:0(eng): Audio: mp3 (libmp3lame), 44100 Hz, stereo, fltp, delay 1105 (default)
    Metadata:
      creation_time   : 2022-11-26T22:09:25.000000Z
      handler_name    : ISO Media file produced by Google Inc.
      encoder         : Lavc58.54.100 libmp3lame
No more output streams to write to, finishing.
size=  157151kB time=02:47:37.61 bitrate= 128.0kbits/s speed=95.7x    
[AVIOContext @ 0x56033b654900] Statistics: 0 seeks, 211 writeouts
video:0kB audio:157151kB subtitle:0kB other streams:0kB global headers:0kB muxing overhead: 0.000215%
Input file #0 (/home/hbattu/projects/huberman-gpt/huberman-audio/mp3/tmpgekvxnol.mp4):
  Input stream #0:0 (audio): 433145 packets read (160921716 bytes); 433145 frames decoded (443540480 samples); 
  Total: 433145 packets (160921716 bytes) demuxed
Output file #0 (../huberman-audio/mp3/gXvuJu1kt48.mp3):
  Output stream #0:0 (audio): 385018 frames encoded (443540480 samples); 385019 packets muxed (160922226 bytes); 
  Total: 385019 packets (160922226 bytes) muxed
[AVIOContext @ 0x56033b685e80] Statistics: 2 seeks, 615 writeouts
[AVIOContext @ 0x56033b65d880] Statistics: 162771888 bytes read, 0 seeks
